<svg width="24" height="24" viewBox="0 0 24 24" fill="none" xmlns="http://www.w3.org/2000/svg">
<path d="M12 21C9.78333 21 7.89567 20.2293 6.337 18.688C4.77833 17.1467 3.99933 15.284 4 13.1C4 12 4.20833 10.9833 4.625 10.05C5.04167 9.11665 5.61667 8.28332 6.35 7.54998L10.95 3.02498C11.1 2.89165 11.2667 2.78765 11.45 2.71298C11.6333 2.63832 11.8167 2.60065 12 2.59998C12.1833 2.59932 12.3667 2.63698 12.55 2.71298C12.7333 2.78898 12.9 2.89298 13.05 3.02498L17.65 7.54998C18.3833 8.28332 18.9583 9.11665 19.375 10.05C19.7917 10.9833 20 12 20 13.1C20 15.2833 19.221 17.146 17.663 18.688C16.105 20.23 14.2173 21.0007 12 21ZM12 19V4.79998L7.75 8.99998C7.16667 9.54998 6.72933 10.171 6.438 10.863C6.14667 11.555 6.00067 12.3007 6 13.1C6 14.7167 6.58333 16.1043 7.75 17.263C8.91667 18.4217 10.3333 19.0007 12 19Z" fill="#16192C"/>
</svg>
