<svg width="134" height="47" viewBox="0 0 134 47" fill="none" xmlns="http://www.w3.org/2000/svg">
<path d="M38.9219 41.0696V4.40625H8.07812V41.0696H4.40625V44.0625H42.5938V41.0696H38.9219ZM11.0156 7.39917H22.0312V18.6226H11.0156V7.39917ZM11.0156 21.6156H22.0312V35.0837H11.0156V21.6156ZM35.9844 41.0696H11.0156V38.0766H35.9844V41.0696ZM35.9844 35.0837H24.9688V21.6156H35.9844V35.0837ZM35.9844 18.6226H24.9688V7.39917H35.9844V18.6226Z" fill="#F56A38"/>
<path d="M51.846 20.948V16.718H52.458C52.794 16.718 53.082 16.586 53.322 16.322C53.574 16.058 53.784 15.638 53.952 15.062C54.132 14.486 54.27 13.73 54.366 12.794C54.474 11.846 54.552 10.688 54.6 9.32L54.69 5.72H62.916V16.718H64.536V20.948H62.754V18.5H53.628V20.948H51.846ZM55.014 16.718H60.882V7.502H56.562L56.508 9.59C56.472 10.97 56.4 12.14 56.292 13.1C56.184 14.048 56.028 14.816 55.824 15.404C55.62 15.992 55.35 16.43 55.014 16.718ZM70.5743 18.68C69.8303 18.68 69.1643 18.554 68.5763 18.302C67.9883 18.038 67.4783 17.678 67.0463 17.222C66.6263 16.766 66.3023 16.25 66.0743 15.674C65.8463 15.086 65.7323 14.462 65.7323 13.802C65.7323 13.142 65.8463 12.518 66.0743 11.93C66.3023 11.342 66.6263 10.826 67.0463 10.382C67.4783 9.926 67.9883 9.572 68.5763 9.32C69.1763 9.056 69.8423 8.924 70.5743 8.924C71.3063 8.924 71.9663 9.056 72.5543 9.32C73.1543 9.572 73.6643 9.926 74.0843 10.382C74.5163 10.826 74.8463 11.342 75.0742 11.93C75.3023 12.518 75.4163 13.142 75.4163 13.802C75.4163 14.462 75.3023 15.086 75.0742 15.674C74.8463 16.25 74.5163 16.766 74.0843 17.222C73.6643 17.678 73.1543 18.038 72.5543 18.302C71.9663 18.554 71.3063 18.68 70.5743 18.68ZM67.7663 13.82C67.7663 14.42 67.8923 14.96 68.1443 15.44C68.3963 15.92 68.7323 16.298 69.1523 16.574C69.5723 16.85 70.0463 16.988 70.5743 16.988C71.0903 16.988 71.5583 16.85 71.9783 16.574C72.4103 16.286 72.7523 15.902 73.0043 15.422C73.2563 14.93 73.3823 14.39 73.3823 13.802C73.3823 13.202 73.2563 12.662 73.0043 12.182C72.7523 11.702 72.4103 11.324 71.9783 11.048C71.5583 10.76 71.0903 10.616 70.5743 10.616C70.0463 10.616 69.5723 10.76 69.1523 11.048C68.7323 11.336 68.3963 11.72 68.1443 12.2C67.8923 12.668 67.7663 13.208 67.7663 13.82ZM77.1724 18.5V9.086H79.1524V12.83H83.5264V9.086H85.5064V18.5H83.5264V14.54H79.1524V18.5H77.1724ZM92.161 18.68C91.429 18.68 90.763 18.554 90.163 18.302C89.575 18.038 89.065 17.684 88.633 17.24C88.201 16.784 87.865 16.268 87.625 15.692C87.397 15.104 87.283 14.48 87.283 13.82C87.283 12.932 87.487 12.122 87.895 11.39C88.303 10.646 88.873 10.052 89.605 9.608C90.337 9.152 91.195 8.924 92.179 8.924C93.163 8.924 94.009 9.152 94.717 9.608C95.437 10.052 95.995 10.64 96.391 11.372C96.787 12.104 96.985 12.89 96.985 13.73C96.985 13.874 96.979 14.012 96.967 14.144C96.955 14.264 96.943 14.366 96.931 14.45H89.389C89.425 15.002 89.575 15.488 89.839 15.908C90.115 16.316 90.463 16.64 90.883 16.88C91.303 17.108 91.753 17.222 92.233 17.222C92.761 17.222 93.259 17.09 93.727 16.826C94.207 16.562 94.531 16.214 94.699 15.782L96.391 16.268C96.187 16.724 95.875 17.138 95.455 17.51C95.047 17.87 94.561 18.158 93.997 18.374C93.433 18.578 92.821 18.68 92.161 18.68ZM89.335 13.136H95.023C94.987 12.596 94.831 12.122 94.555 11.714C94.291 11.294 93.949 10.97 93.529 10.742C93.121 10.502 92.665 10.382 92.161 10.382C91.669 10.382 91.213 10.502 90.793 10.742C90.385 10.97 90.049 11.294 89.785 11.714C89.521 12.122 89.371 12.596 89.335 13.136ZM105.98 20.75V18.5H98.6001V9.086H100.58V16.772H104.432V9.086H106.412V16.772H107.726V20.75H105.98ZM109.393 18.5V9.086H111.355V12.812H112.291L115.063 9.086H117.259L113.821 13.64L117.655 18.5H115.369L112.273 14.594H111.355V18.5H109.393Z" fill="#001C1F"/>
<path d="M56.67 41.68C55.926 41.68 55.26 41.554 54.672 41.302C54.084 41.038 53.574 40.678 53.142 40.222C52.722 39.766 52.398 39.25 52.17 38.674C51.942 38.086 51.828 37.462 51.828 36.802C51.828 36.142 51.942 35.518 52.17 34.93C52.398 34.342 52.722 33.826 53.142 33.382C53.574 32.926 54.084 32.572 54.672 32.32C55.272 32.056 55.938 31.924 56.67 31.924C57.402 31.924 58.062 32.056 58.65 32.32C59.25 32.572 59.76 32.926 60.18 33.382C60.612 33.826 60.942 34.342 61.17 34.93C61.398 35.518 61.512 36.142 61.512 36.802C61.512 37.462 61.398 38.086 61.17 38.674C60.942 39.25 60.612 39.766 60.18 40.222C59.76 40.678 59.25 41.038 58.65 41.302C58.062 41.554 57.402 41.68 56.67 41.68ZM53.862 36.82C53.862 37.42 53.988 37.96 54.24 38.44C54.492 38.92 54.828 39.298 55.248 39.574C55.668 39.85 56.142 39.988 56.67 39.988C57.186 39.988 57.654 39.85 58.074 39.574C58.506 39.286 58.848 38.902 59.1 38.422C59.352 37.93 59.478 37.39 59.478 36.802C59.478 36.202 59.352 35.662 59.1 35.182C58.848 34.702 58.506 34.324 58.074 34.048C57.654 33.76 57.186 33.616 56.67 33.616C56.142 33.616 55.668 33.76 55.248 34.048C54.828 34.336 54.492 34.72 54.24 35.2C53.988 35.668 53.862 36.208 53.862 36.82ZM63.2681 41.5V32.086H65.2301V35.812H66.1661L68.9381 32.086H71.1341L67.6961 36.64L71.5301 41.5H69.2441L66.1481 37.594H65.2301V41.5H63.2681ZM73.0415 41.5V32.086H75.0215V35.83H79.3955V32.086H81.3755V41.5H79.3955V37.54H75.0215V41.5H73.0415ZM83.0802 38.746C83.0802 38.146 83.2482 37.624 83.5842 37.18C83.9322 36.724 84.4062 36.376 85.0062 36.136C85.6062 35.884 86.3022 35.758 87.0942 35.758C87.5142 35.758 87.9402 35.788 88.3722 35.848C88.8162 35.908 89.2062 36.004 89.5422 36.136V35.542C89.5422 34.882 89.3442 34.366 88.9482 33.994C88.5522 33.622 87.9822 33.436 87.2382 33.436C86.7102 33.436 86.2122 33.532 85.7442 33.724C85.2762 33.904 84.7782 34.162 84.2502 34.498L83.5842 33.166C84.2082 32.746 84.8322 32.434 85.4562 32.23C86.0922 32.026 86.7582 31.924 87.4542 31.924C88.7142 31.924 89.7042 32.26 90.4242 32.932C91.1562 33.592 91.5222 34.534 91.5222 35.758V39.268C91.5222 39.496 91.5582 39.658 91.6302 39.754C91.7142 39.85 91.8522 39.904 92.0442 39.916V41.5C91.8642 41.536 91.7022 41.56 91.5582 41.572C91.4142 41.584 91.2942 41.59 91.1982 41.59C90.7782 41.59 90.4602 41.488 90.2442 41.284C90.0282 41.08 89.9022 40.84 89.8662 40.564L89.8122 40.024C89.4042 40.552 88.8822 40.96 88.2462 41.248C87.6102 41.536 86.9682 41.68 86.3202 41.68C85.6962 41.68 85.1382 41.554 84.6462 41.302C84.1542 41.038 83.7702 40.684 83.4942 40.24C83.2182 39.796 83.0802 39.298 83.0802 38.746ZM89.0742 39.322C89.2182 39.166 89.3322 39.01 89.4162 38.854C89.5002 38.698 89.5422 38.56 89.5422 38.44V37.36C89.2062 37.228 88.8522 37.132 88.4802 37.072C88.1082 37 87.7422 36.964 87.3822 36.964C86.6622 36.964 86.0742 37.108 85.6182 37.396C85.1742 37.684 84.9522 38.08 84.9522 38.584C84.9522 38.86 85.0242 39.124 85.1682 39.376C85.3242 39.628 85.5402 39.832 85.8162 39.988C86.1042 40.144 86.4582 40.222 86.8782 40.222C87.3102 40.222 87.7242 40.138 88.1202 39.97C88.5162 39.802 88.8342 39.586 89.0742 39.322ZM93.8343 41.5V39.196H95.4723V41.5H93.8343ZM103.102 41.68C102.346 41.68 101.68 41.5 101.104 41.14C100.528 40.78 100.072 40.312 99.7364 39.736V45.334H97.7564V32.086H99.5024V33.778C99.8624 33.214 100.33 32.764 100.906 32.428C101.482 32.092 102.124 31.924 102.832 31.924C103.48 31.924 104.074 32.056 104.614 32.32C105.154 32.572 105.622 32.926 106.018 33.382C106.414 33.838 106.72 34.36 106.936 34.948C107.164 35.524 107.278 36.136 107.278 36.784C107.278 37.684 107.098 38.506 106.738 39.25C106.39 39.994 105.898 40.588 105.262 41.032C104.638 41.464 103.918 41.68 103.102 41.68ZM102.454 39.988C102.874 39.988 103.252 39.898 103.588 39.718C103.936 39.538 104.23 39.298 104.47 38.998C104.722 38.698 104.914 38.356 105.046 37.972C105.178 37.588 105.244 37.192 105.244 36.784C105.244 36.352 105.172 35.944 105.028 35.56C104.884 35.176 104.674 34.84 104.398 34.552C104.134 34.264 103.822 34.036 103.462 33.868C103.114 33.7 102.73 33.616 102.31 33.616C102.058 33.616 101.794 33.664 101.518 33.76C101.242 33.856 100.984 33.988 100.744 34.156C100.504 34.324 100.294 34.522 100.114 34.75C99.9344 34.978 99.8084 35.218 99.7364 35.47V37.936C99.9044 38.32 100.126 38.668 100.402 38.98C100.678 39.28 100.996 39.526 101.356 39.718C101.716 39.898 102.082 39.988 102.454 39.988ZM113.433 45.334V41.5H113.109C112.137 41.5 111.303 41.284 110.607 40.852C109.911 40.42 109.377 39.85 109.005 39.142C108.633 38.422 108.447 37.642 108.447 36.802C108.447 35.962 108.633 35.188 109.005 34.48C109.389 33.76 109.929 33.184 110.625 32.752C111.321 32.32 112.149 32.104 113.109 32.104H113.433V28.36H115.413V32.104H115.737C116.697 32.104 117.525 32.32 118.221 32.752C118.917 33.184 119.451 33.76 119.823 34.48C120.207 35.188 120.399 35.962 120.399 36.802C120.399 37.642 120.213 38.422 119.841 39.142C119.469 39.85 118.935 40.42 118.239 40.852C117.543 41.284 116.709 41.5 115.737 41.5H115.413V45.334H113.433ZM113.109 39.898H113.523V33.706H113.109C112.581 33.706 112.113 33.844 111.705 34.12C111.297 34.396 110.973 34.768 110.733 35.236C110.505 35.704 110.391 36.232 110.391 36.82C110.391 37.408 110.505 37.936 110.733 38.404C110.961 38.872 111.279 39.238 111.687 39.502C112.095 39.766 112.569 39.898 113.109 39.898ZM115.305 39.898H115.737C116.277 39.898 116.751 39.766 117.159 39.502C117.567 39.238 117.885 38.872 118.113 38.404C118.353 37.936 118.473 37.408 118.473 36.82C118.473 36.232 118.353 35.704 118.113 35.236C117.885 34.768 117.567 34.396 117.159 34.12C116.751 33.844 116.277 33.706 115.737 33.706H115.305V39.898Z" fill="#001C1F"/>
</svg>
