<svg width="24" height="24" viewBox="0 0 24 24" fill="none" xmlns="http://www.w3.org/2000/svg">
<path d="M20.0299 6.34151L12.1837 2.85228C12.126 2.82512 12.0629 2.81104 11.9991 2.81104C11.9353 2.81104 11.8722 2.82512 11.8145 2.85228L3.96833 6.34151C3.8872 6.3769 3.81796 6.43488 3.76886 6.50853C3.71976 6.58217 3.69287 6.66839 3.69141 6.75689V9.23074C3.69141 13.7723 6.40525 19.2738 11.8329 21.1754C11.9407 21.2119 12.0575 21.2119 12.1653 21.1754C17.5929 19.2738 20.3068 13.7723 20.3068 9.23074V6.75689C20.3053 6.66839 20.2784 6.58217 20.2293 6.50853C20.1802 6.43488 20.111 6.3769 20.0299 6.34151ZM16.3265 9.39689L11.4526 15.6018C11.3818 15.6913 11.2929 15.7648 11.1917 15.8176C11.0906 15.8704 10.9795 15.9013 10.8656 15.9083L10.8176 15.9101C10.6029 15.9098 10.3972 15.8245 10.2453 15.6729L7.73448 13.1621C7.58307 13.0103 7.49815 12.8046 7.4984 12.5902C7.49866 12.3758 7.58408 12.1703 7.73587 12.0189C7.88765 11.8675 8.09337 11.7826 8.30777 11.7828C8.52217 11.7831 8.72768 11.8685 8.8791 12.0203L10.7456 13.8867L15.0563 8.39904C15.1911 8.23754 15.3835 8.13491 15.5927 8.11293C15.8019 8.09094 16.0114 8.15134 16.1768 8.2813C16.3422 8.41126 16.4504 8.60055 16.4785 8.80901C16.5067 9.01746 16.4524 9.22867 16.3274 9.39781L16.3265 9.39689Z" fill="#16192C"/>
</svg>
