<svg width="20" height="20" viewBox="0 0 20 20" fill="none" xmlns="http://www.w3.org/2000/svg">
<path d="M14.2014 9.19397C15.5904 11.077 16.0194 12.711 15.7604 12.971C15.5004 13.229 13.8674 12.801 11.9824 11.412L6.4564 16.939C10.6424 18.777 16.0834 14.921 17.0614 13.943C17.9864 13.021 17.1584 10.634 15.2054 8.18897L14.2014 9.19397ZM8.6674 7.94097C7.5684 6.28297 7.2364 4.91797 7.4734 4.68097C7.7064 4.44697 9.0734 4.77697 10.7304 5.87797L11.7534 4.85297C9.4894 3.17897 7.3584 2.51897 6.4964 3.38397C5.5684 4.30997 2.0484 9.26097 3.2654 13.341L8.6674 7.94097ZM18.5214 1.47797C18.3339 1.2905 18.0796 1.18518 17.8144 1.18518C17.5492 1.18518 17.2949 1.2905 17.1074 1.47797L1.4784 17.108C1.29089 17.2955 1.18555 17.5498 1.18555 17.815C1.18555 18.0801 1.29089 18.3345 1.4784 18.522C1.6659 18.7095 1.92022 18.8148 2.1854 18.8148C2.45057 18.8148 2.70489 18.7095 2.8924 18.522L18.5214 2.89197C18.7089 2.70444 18.8142 2.45013 18.8142 2.18497C18.8142 1.9198 18.7089 1.66549 18.5214 1.47797Z" fill="#16192C"/>
</svg>
