<svg width="24" height="24" viewBox="0 0 24 24" fill="none" xmlns="http://www.w3.org/2000/svg">
<path d="M9.99944 2C10.7951 2 11.5582 2.31607 12.1208 2.87868C12.6834 3.44129 12.9994 4.20435 12.9994 5V12.965L13.0744 13.021C13.8177 13.6006 14.3819 14.3785 14.7022 15.2649C15.0224 16.1513 15.0856 17.1102 14.8844 18.031L14.8294 18.258C14.6241 19.0238 14.2396 19.7298 13.7077 20.3177C13.1758 20.9057 12.5116 21.3587 11.7701 21.6394C11.0286 21.9201 10.231 22.0204 9.44307 21.9321C8.65515 21.8438 7.89952 21.5693 7.23856 21.1315C6.57759 20.6936 6.03023 20.1048 5.64166 19.4137C5.25308 18.7226 5.03443 17.949 5.00375 17.1567C4.97306 16.3644 5.13123 15.5762 5.46518 14.8571C5.79914 14.1381 6.29932 13.5087 6.92444 13.021L6.99944 12.965V5C6.9994 4.23479 7.29177 3.49849 7.81672 2.94174C8.34168 2.38499 9.05955 2.04989 9.82344 2.005L9.99944 2ZM18.9994 5C19.2647 5 19.519 5.10536 19.7065 5.29289C19.8941 5.48043 19.9994 5.73478 19.9994 6V8H21.9994C22.2647 8 22.519 8.10536 22.7065 8.29289C22.8941 8.48043 22.9994 8.73478 22.9994 9C22.9994 9.26522 22.8941 9.51957 22.7065 9.70711C22.519 9.89464 22.2647 10 21.9994 10H19.9994V12C19.9994 12.2652 19.8941 12.5196 19.7065 12.7071C19.519 12.8946 19.2647 13 18.9994 13C18.7342 13 18.4799 12.8946 18.2923 12.7071C18.1048 12.5196 17.9994 12.2652 17.9994 12V10H15.9994C15.7342 10 15.4799 9.89464 15.2923 9.70711C15.1048 9.51957 14.9994 9.26522 14.9994 9C14.9994 8.73478 15.1048 8.48043 15.2923 8.29289C15.4799 8.10536 15.7342 8 15.9994 8H17.9994V6C17.9994 5.73478 18.1048 5.48043 18.2923 5.29289C18.4799 5.10536 18.7342 5 18.9994 5ZM9.99944 4C9.73422 4 9.47987 4.10536 9.29233 4.29289C9.1048 4.48043 8.99944 4.73478 8.99944 5V9H10.9994V5C10.9994 4.73478 10.8941 4.48043 10.7065 4.29289C10.519 4.10536 10.2647 4 9.99944 4Z" fill="#16192C"/>
</svg>
