<svg width="20" height="20" viewBox="0 0 20 20" fill="none" xmlns="http://www.w3.org/2000/svg">
<path d="M10.0013 1.66663C14.6038 1.66663 18.3346 5.39746 18.3346 9.99996C18.3346 14.6025 14.6038 18.3333 10.0013 18.3333C8.52861 18.3358 7.0818 17.9461 5.80965 17.2041L1.67131 18.3333L2.79798 14.1933C2.05545 12.9207 1.6654 11.4733 1.66798 9.99996C1.66798 5.39746 5.39882 1.66663 10.0013 1.66663ZM7.16131 6.08329L6.99465 6.08996C6.88689 6.09738 6.7816 6.12569 6.68465 6.17329C6.59429 6.22455 6.51178 6.28854 6.43965 6.36329C6.33965 6.45746 6.28298 6.53913 6.22215 6.61829C5.91392 7.01904 5.74796 7.51105 5.75048 8.01663C5.75215 8.42496 5.85881 8.82246 6.02548 9.19413C6.36631 9.94579 6.92715 10.7416 7.66715 11.4791C7.84548 11.6566 8.02048 11.835 8.20882 12.0008C9.12834 12.8103 10.224 13.3941 11.4088 13.7058L11.8821 13.7783C12.0363 13.7866 12.1905 13.775 12.3455 13.7675C12.5881 13.7547 12.8251 13.689 13.0396 13.575C13.1487 13.5186 13.2552 13.4574 13.3588 13.3916C13.3588 13.3916 13.3941 13.3677 13.463 13.3166C13.5755 13.2333 13.6446 13.1741 13.738 13.0766C13.808 13.0044 13.8663 12.9205 13.913 12.825C13.978 12.6891 14.043 12.43 14.0696 12.2141C14.0896 12.0491 14.0838 11.9591 14.0813 11.9033C14.078 11.8141 14.0038 11.7216 13.923 11.6825L13.438 11.465C13.438 11.465 12.713 11.1491 12.2696 10.9475C12.2232 10.9273 12.1735 10.9157 12.123 10.9133C12.066 10.9073 12.0083 10.9137 11.954 10.9319C11.8996 10.9502 11.8498 10.9799 11.808 11.0191C11.8038 11.0175 11.748 11.065 11.1455 11.795C11.1109 11.8414 11.0633 11.8765 11.0087 11.8958C10.954 11.9151 10.8949 11.9177 10.8388 11.9033C10.7845 11.8888 10.7313 11.8704 10.6796 11.8483C10.5763 11.805 10.5405 11.7883 10.4696 11.7583C9.99121 11.5499 9.54835 11.2679 9.15715 10.9225C9.05215 10.8308 8.95465 10.7308 8.85465 10.6341C8.52682 10.3201 8.24111 9.96495 8.00465 9.57746L7.95548 9.49829C7.9207 9.44479 7.89218 9.38747 7.87048 9.32746C7.83881 9.20496 7.92131 9.10663 7.92131 9.10663C7.92131 9.10663 8.12381 8.88496 8.21798 8.76496C8.30965 8.64829 8.38715 8.53496 8.43715 8.45413C8.53548 8.29579 8.56632 8.13329 8.51465 8.00746C8.28132 7.43746 8.0402 6.87051 7.79131 6.30663C7.74215 6.19496 7.59631 6.11496 7.46382 6.09913C7.41882 6.09357 7.37381 6.08913 7.32881 6.08579C7.21692 6.07937 7.10472 6.08049 6.99298 6.08913L7.16131 6.08329Z" fill="#16192C"/>
</svg>
