<svg width="24" height="24" viewBox="0 0 24 24" fill="none" xmlns="http://www.w3.org/2000/svg">
<path d="M12.5 12.5H20V18.385C20 18.829 19.8417 19.209 19.525 19.525C19.2083 19.841 18.8283 19.9993 18.385 20H12.5V12.5ZM12.5 11.5V4H18.385C18.829 4 19.209 4.15833 19.525 4.475C19.841 4.79167 19.9993 5.17167 20 5.615V11.5H12.5ZM11.5 11.5H4V5.616C4 5.17133 4.15833 4.791 4.475 4.475C4.79167 4.159 5.17167 4.00067 5.615 4H11.5V11.5ZM11.5 12.5V20H5.616C5.17133 20 4.791 19.8417 4.475 19.525C4.159 19.2083 4.00067 18.8287 4 18.386V12.5H11.5Z" fill="#16192C"/>
</svg>
