<svg width="50" height="50" viewBox="0 0 50 50" fill="none" xmlns="http://www.w3.org/2000/svg">
<rect x="4" y="4" width="42" height="42" rx="21" fill="white"/>
<rect x="2" y="2" width="46" height="46" rx="23" stroke="white" stroke-opacity="0.5" stroke-width="4"/>
<path d="M24.5672 24.5668L19.1512 19.1514M18.068 20.776L20.776 18.0684L17.5264 16.4438L16.4432 17.5268L18.068 20.776ZM34.2888 22.3736C34.8088 21.854 35.1666 21.1945 35.3185 20.4754C35.4705 19.7562 35.41 19.0083 35.1445 18.3229L33.6042 19.863H31.4378V17.6969L32.9781 16.1568C32.2926 15.8907 31.5444 15.8297 30.8248 15.9813C30.1052 16.1329 29.4452 16.4905 28.9253 17.0105C28.4053 17.5305 28.0479 18.1905 27.8964 18.91C27.745 19.6296 27.8061 20.3776 28.0724 21.0631L21.0641 28.0716C20.3786 27.8054 19.6305 27.7442 18.9108 27.8957C18.1912 28.0471 17.5312 28.4045 17.0111 28.9244C16.491 29.4443 16.1334 30.1042 15.9818 30.8237C15.8302 31.5432 15.8912 32.2913 16.1573 32.9768L17.6965 31.4367H19.8629V33.6028L18.3226 35.1429C19.008 35.409 19.7559 35.47 20.4754 35.3186C21.1949 35.1672 21.8548 34.8099 22.3748 34.2902C22.8948 33.7705 23.2525 33.1108 23.4042 32.3915C23.5559 31.6722 23.4952 30.9242 23.2294 30.2388L30.2398 23.2292C30.9251 23.4942 31.6725 23.5544 32.3914 23.4025C33.1102 23.2506 33.7694 22.8931 34.2888 22.3736Z" stroke="#ED744C" stroke-width="1.28" stroke-linecap="round" stroke-linejoin="round"/>
<path d="M26.3008 28.3185L30.4861 32.5038C30.5797 32.5976 30.691 32.6721 30.8134 32.7229C30.9359 32.7737 31.0671 32.7998 31.1997 32.7998C31.3323 32.7998 31.4635 32.7737 31.586 32.7229C31.7084 32.6721 31.8197 32.5976 31.9133 32.5038L32.5048 31.9123C32.5986 31.8187 32.6731 31.7074 32.7239 31.585C32.7746 31.4625 32.8008 31.3313 32.8008 31.1987C32.8008 31.0662 32.7746 30.9349 32.7239 30.8124C32.6731 30.69 32.5986 30.5788 32.5048 30.4851L28.3195 26.2998" stroke="#ED744C" stroke-width="1.28" stroke-linecap="round" stroke-linejoin="round"/>
</svg>
