<svg width="50" height="50" viewBox="0 0 50 50" fill="none" xmlns="http://www.w3.org/2000/svg">
<rect x="4" y="4" width="42" height="42" rx="21" fill="white"/>
<rect x="2" y="2" width="46" height="46" rx="23" stroke="white" stroke-opacity="0.5" stroke-width="4"/>
<path d="M17.4167 34.75C16.8208 34.75 16.3109 34.538 15.887 34.1141C15.4631 33.6901 15.2507 33.1799 15.25 32.5833V17.4167C15.25 16.8208 15.4623 16.3109 15.887 15.887C16.3117 15.4631 16.8216 15.2507 17.4167 15.25H32.5833C33.1792 15.25 33.6894 15.4623 34.1141 15.887C34.5388 16.3117 34.7507 16.8216 34.75 17.4167V32.5833C34.75 33.1792 34.538 33.6894 34.1141 34.1141C33.6901 34.5388 33.1799 34.7507 32.5833 34.75H17.4167ZM26.0833 26.0833V32.5833H32.5833V26.0833H26.0833ZM26.0833 23.9167H32.5833V17.4167H26.0833V23.9167ZM23.9167 23.9167V17.4167H17.4167V23.9167H23.9167ZM23.9167 26.0833H17.4167V32.5833H23.9167V26.0833Z" fill="#ED744C"/>
</svg>
