<svg width="50" height="50" viewBox="0 0 50 50" fill="none" xmlns="http://www.w3.org/2000/svg">
<rect x="4" y="4" width="42" height="42" rx="21" fill="white"/>
<rect x="2" y="2" width="46" height="46" rx="23" stroke="white" stroke-opacity="0.5" stroke-width="4"/>
<path d="M25 28.4125L22.9688 26.3813C22.7521 26.1646 22.4993 26.0563 22.2104 26.0563C21.9215 26.0563 21.6688 26.1646 21.4521 26.3813C21.2354 26.5979 21.1271 26.8554 21.1271 27.1537C21.1271 27.4519 21.2354 27.7091 21.4521 27.925L24.2417 30.7417C24.4583 30.9583 24.7111 31.0667 25 31.0667C25.2889 31.0667 25.5417 30.9583 25.7583 30.7417L28.575 27.925C28.7917 27.7083 28.9 27.4512 28.9 27.1537C28.9 26.8561 28.7917 26.5986 28.575 26.3813C28.3583 26.1639 28.1012 26.0555 27.8037 26.0563C27.5061 26.057 27.2486 26.1653 27.0312 26.3813L25 28.4125ZM25 21.5875L27.0312 23.6188C27.2479 23.8354 27.5007 23.9438 27.7896 23.9438C28.0785 23.9438 28.3313 23.8354 28.5479 23.6188C28.7646 23.4021 28.8729 23.145 28.8729 22.8474C28.8729 22.5499 28.7646 22.2924 28.5479 22.075L25.7583 19.2583C25.5417 19.0417 25.2889 18.9333 25 18.9333C24.7111 18.9333 24.4583 19.0417 24.2417 19.2583L21.425 22.075C21.2083 22.2917 21.1047 22.5444 21.1141 22.8333C21.1235 23.1222 21.2361 23.375 21.4521 23.5917C21.668 23.8083 21.9255 23.9167 22.2245 23.9167C22.5235 23.9167 22.7806 23.8083 22.9958 23.5917L25 21.5875ZM17.4167 34.75C16.8208 34.75 16.3109 34.538 15.887 34.1141C15.4631 33.6901 15.2507 33.1799 15.25 32.5833V17.4167C15.25 16.8208 15.4623 16.3109 15.887 15.887C16.3117 15.4631 16.8216 15.2507 17.4167 15.25H32.5833C33.1792 15.25 33.6894 15.4623 34.1141 15.887C34.5388 16.3117 34.7507 16.8216 34.75 17.4167V32.5833C34.75 33.1792 34.538 33.6894 34.1141 34.1141C33.6901 34.5388 33.1799 34.7507 32.5833 34.75H17.4167ZM17.4167 32.5833H32.5833V17.4167H17.4167V32.5833Z" fill="#ED744C"/>
</svg>
