<svg width="50" height="50" viewBox="0 0 50 50" fill="none" xmlns="http://www.w3.org/2000/svg">
<rect x="4" y="4" width="42" height="42" rx="21" fill="white"/>
<rect x="2" y="2" width="46" height="46" rx="23" stroke="white" stroke-opacity="0.5" stroke-width="4"/>
<path d="M34.75 16.875H15.25C15.0345 16.875 14.8278 16.9606 14.6755 17.113C14.5231 17.2653 14.4375 17.472 14.4375 17.6875V32.3125C14.4375 32.528 14.5231 32.7347 14.6755 32.887C14.8278 33.0394 15.0345 33.125 15.25 33.125H34.75C34.9655 33.125 35.1722 33.0394 35.3245 32.887C35.4769 32.7347 35.5625 32.528 35.5625 32.3125V17.6875C35.5625 17.472 35.4769 17.2653 35.3245 17.113C35.1722 16.9606 34.9655 16.875 34.75 16.875ZM20.9375 26.625V23.375H29.0625V26.625H20.9375ZM16.0625 26.625V23.375H19.3125V26.625H16.0625ZM30.6875 23.375H33.9375V26.625H30.6875V23.375ZM33.9375 21.75H25.8125V18.5H33.9375V21.75ZM24.1875 18.5V21.75H16.0625V18.5H24.1875ZM16.0625 28.25H24.1875V31.5H16.0625V28.25ZM25.8125 31.5V28.25H33.9375V31.5H25.8125Z" fill="#ED744C"/>
</svg>
