<svg width="50" height="50" viewBox="0 0 50 50" fill="none" xmlns="http://www.w3.org/2000/svg">
<rect x="4" y="4" width="42" height="42" rx="21" fill="white"/>
<rect x="2" y="2" width="46" height="46" rx="23" stroke="white" stroke-opacity="0.5" stroke-width="4"/>
<path d="M25.6421 37.1961L25.6302 37.1983L25.5533 37.2362L25.5316 37.2406L25.5164 37.2362L25.4395 37.1983C25.428 37.1947 25.4193 37.1965 25.4135 37.2037L25.4092 37.2146L25.3908 37.6782L25.3962 37.6999L25.407 37.714L25.5197 37.7941L25.5359 37.7985L25.5489 37.7941L25.6616 37.714L25.6746 37.6966L25.6789 37.6782L25.6605 37.2156C25.6576 37.2041 25.6515 37.1976 25.6421 37.1961ZM25.9292 37.0737L25.9151 37.0759L25.7147 37.1766L25.7039 37.1875L25.7006 37.1994L25.7201 37.6652L25.7255 37.6782L25.7342 37.6858L25.9519 37.7866C25.9657 37.7902 25.9761 37.7873 25.9834 37.7779L25.9877 37.7627L25.9509 37.0976C25.9473 37.0846 25.94 37.0766 25.9292 37.0737ZM25.1546 37.0759C25.1498 37.073 25.1441 37.0721 25.1387 37.0733C25.1332 37.0745 25.1285 37.0777 25.1254 37.0824L25.1189 37.0976L25.082 37.7627C25.0828 37.7757 25.0889 37.7844 25.1004 37.7887L25.1167 37.7866L25.3344 37.6858L25.3453 37.6771L25.3496 37.6652L25.368 37.1994L25.3648 37.1864L25.3539 37.1756L25.1546 37.0759Z" fill="#ED744C"/>
<path d="M30.4167 15.25C30.9913 15.25 31.5424 15.4783 31.9487 15.8846C32.3551 16.2909 32.5833 16.842 32.5833 17.4167V32.5833H33.6667C33.954 32.5833 34.2295 32.6975 34.4327 32.9006C34.6359 33.1038 34.75 33.3793 34.75 33.6667C34.75 33.954 34.6359 34.2295 34.4327 34.4327C34.2295 34.6359 33.954 34.75 33.6667 34.75H16.3333C16.046 34.75 15.7705 34.6359 15.5673 34.4327C15.3641 34.2295 15.25 33.954 15.25 33.6667C15.25 33.3793 15.3641 33.1038 15.5673 32.9006C15.7705 32.6975 16.046 32.5833 16.3333 32.5833H17.4167V17.4167C17.4167 16.842 17.6449 16.2909 18.0513 15.8846C18.4576 15.4783 19.0087 15.25 19.5833 15.25H30.4167ZM30.4167 17.4167H19.5833V32.5833H30.4167V17.4167ZM27.7083 23.9167C27.9217 23.9167 28.133 23.9587 28.3302 24.0404C28.5273 24.122 28.7065 24.2417 28.8574 24.3926C29.0083 24.5435 29.128 24.7227 29.2096 24.9198C29.2913 25.117 29.3333 25.3283 29.3333 25.5417C29.3333 25.7551 29.2913 25.9664 29.2096 26.1635C29.128 26.3607 29.0083 26.5398 28.8574 26.6907C28.7065 26.8416 28.5273 26.9613 28.3302 27.043C28.133 27.1246 27.9217 27.1667 27.7083 27.1667C27.2774 27.1667 26.864 26.9955 26.5593 26.6907C26.2545 26.386 26.0833 25.9726 26.0833 25.5417C26.0833 25.1107 26.2545 24.6974 26.5593 24.3926C26.864 24.0879 27.2774 23.9167 27.7083 23.9167Z" fill="#ED744C"/>
</svg>
