<svg width="50" height="50" viewBox="0 0 50 50" fill="none" xmlns="http://www.w3.org/2000/svg">
<rect x="4" y="4" width="42" height="42" rx="21" fill="white"/>
<rect x="2" y="2" width="46" height="46" rx="23" stroke="white" stroke-opacity="0.5" stroke-width="4"/>
<g clip-path="url(#clip0_162_122)">
<path d="M20.5556 24.5V22.4H22.7778V24.5H20.5556ZM27.2222 24.5V22.4H29.4444V24.5H27.2222ZM15 35V26.6H16.1111V22.4C16.1111 21.245 16.3426 20.1554 16.8056 19.1314C17.2685 18.1072 17.903 17.2147 18.7089 16.4538C19.5148 15.6929 20.4593 15.0937 21.5422 14.6562C22.6252 14.2188 23.7778 14 25 14C26.2222 14 27.3752 14.2188 28.4589 14.6562C29.5426 15.0937 30.487 15.6933 31.2922 16.4549C32.0974 17.2165 32.7315 18.109 33.1944 19.1324C33.6574 20.1558 33.8889 21.245 33.8889 22.4V26.6H35V35H15ZM17.2222 32.9H19.4444V28.7H17.2222V32.9ZM21.6667 32.9H23.8889V28.7H21.6667V32.9ZM18.3333 26.6H23.8889V16.1787C22.2963 16.4237 20.9722 17.1279 19.9167 18.2913C18.8611 19.4547 18.3333 20.8243 18.3333 22.4V26.6ZM26.1111 26.6H31.6667V22.4C31.6667 20.825 31.1389 19.4558 30.0833 18.2924C29.0278 17.129 27.7037 16.4244 26.1111 16.1787V26.6ZM26.1111 32.9H28.3333V28.7H26.1111V32.9ZM30.5556 32.9H32.7778V28.7H30.5556V32.9Z" fill="#ED744C"/>
</g>
<defs>
<clipPath id="clip0_162_122">
<rect width="26" height="26" fill="white" transform="translate(12 12)"/>
</clipPath>
</defs>
</svg>
